<svg xmlns="http://www.w3.org/2000/svg" width="32" height="32" id="new"><path fill="#3477e0" d="M6 9.851h24l-5 6.15 5 6.148H6z"></path><path fill="#342ce0" d="M6 9.851h2V22.15H6z"></path><path fill="#fc0" d="M2 8.001h5v16H2z"></path><path style="line-height:125%;-inkscape-font-specification:'Bebas Neue Bold'" fill="#fc0" d="M10.344 12.703v6.594h.933V14.52l1.29 4.776h1.064v-6.594h-.922v3.947l-1.064-3.947h-1.301zm4.039 0v6.594h2.826v-.942h-1.79v-1.931h1.423v-.942H15.42v-1.837h1.789v-.942h-2.826zm3.224 0 .735 6.594h1.422l.377-3.514.377 3.514h1.377l.734-6.594h-.904l-.538 5.238-.519-5.238h-.998l-.5 5.2-.555-5.2h-1.008z" font-family="Bebas Neue" font-size="9.421" font-weight="700" letter-spacing="0" word-spacing="0"></path></svg>